<svg xmlns="http://www.w3.org/2000/svg" viewBox="0 0 16 16" width="16" height="16" fill="currentColor"><g fill="currentColor"><rect x="3.09" y="5.09" width="0.82" height="0.82" rx="0.18"></rect><rect x="4.09" y="5.09" width="0.82" height="0.82" rx="0.18"></rect><rect x="5.09" y="5.09" width="0.82" height="0.82" rx="0.18"></rect><rect x="6.09" y="5.09" width="0.82" height="0.82" rx="0.18"></rect><rect x="7.09" y="5.09" width="0.82" height="0.82" rx="0.18"></rect><rect x="8.09" y="5.09" width="0.82" height="0.82" rx="0.18"></rect><rect x="9.09" y="5.09" width="0.82" height="0.82" rx="0.18"></rect><rect x="10.09" y="5.09" width="0.82" height="0.82" rx="0.18"></rect><rect x="3.09" y="6.09" width="0.82" height="0.82" rx="0.18"></rect><rect x="4.09" y="6.09" width="0.82" height="0.82" rx="0.18"></rect><rect x="9.09" y="6.09" width="0.82" height="0.82" rx="0.18"></rect><rect x="10.09" y="6.09" width="0.82" height="0.82" rx="0.18"></rect><rect x="11.09" y="6.09" width="0.82" height="0.82" rx="0.18"></rect><rect x="3.09" y="7.09" width="0.82" height="0.82" rx="0.18"></rect><rect x="4.09" y="7.09" width="0.82" height="0.82" rx="0.18"></rect><rect x="10.09" y="7.09" width="0.82" height="0.82" rx="0.18"></rect><rect x="11.09" y="7.09" width="0.82" height="0.82" rx="0.18"></rect><rect x="12.09" y="7.09" width="0.82" height="0.82" rx="0.18"></rect><rect x="3.09" y="8.09" width="0.82" height="0.82" rx="0.18"></rect><rect x="4.09" y="8.09" width="0.82" height="0.82" rx="0.18"></rect><rect x="5.09" y="8.09" width="0.82" height="0.82" rx="0.18"></rect><rect x="6.09" y="8.09" width="0.82" height="0.82" rx="0.18"></rect><rect x="11.09" y="8.09" width="0.82" height="0.82" rx="0.18"></rect><rect x="12.09" y="8.09" width="0.82" height="0.82" rx="0.18"></rect><rect x="3.09" y="9.09" width="0.82" height="0.82" rx="0.18"></rect><rect x="4.09" y="9.09" width="0.82" height="0.82" rx="0.18"></rect><rect x="10.09" y="9.09" width="0.82" height="0.82" rx="0.18"></rect><rect x="11.09" y="9.09" width="0.82" height="0.82" rx="0.18"></rect><rect x="3.09" y="10.09" width="0.82" height="0.82" rx="0.18"></rect><rect x="4.09" y="10.09" width="0.82" height="0.82" rx="0.18"></rect><rect x="5.09" y="10.09" width="0.82" height="0.82" rx="0.18"></rect><rect x="6.09" y="10.09" width="0.82" height="0.82" rx="0.18"></rect><rect x="7.09" y="10.09" width="0.82" height="0.82" rx="0.18"></rect><rect x="8.09" y="10.09" width="0.82" height="0.82" rx="0.18"></rect><rect x="9.09" y="10.09" width="0.82" height="0.82" rx="0.18"></rect><rect x="10.09" y="10.09" width="0.82" height="0.82" rx="0.18"></rect><rect x="3.09" y="11.09" width="0.82" height="0.82" rx="0.18"></rect><rect x="4.09" y="11.09" width="0.82" height="0.82" rx="0.18"></rect><rect x="5.09" y="11.09" width="0.82" height="0.82" rx="0.18"></rect><rect x="6.09" y="11.09" width="0.82" height="0.82" rx="0.18"></rect><rect x="7.09" y="11.09" width="0.82" height="0.82" rx="0.18"></rect><rect x="8.09" y="11.09" width="0.82" height="0.82" rx="0.18"></rect><rect x="9.09" y="11.09" width="0.82" height="0.82" rx="0.18"></rect></g></svg>